<?xml version="1.0" encoding="UTF-8"?>
<svg id="Layer_1" xmlns="http://www.w3.org/2000/svg" version="1.1" viewBox="0 0 1024 1024">
  <!-- Generator: Adobe Illustrator 29.5.1, SVG Export Plug-In . SVG Version: 2.1.0 Build 141)  -->
  <defs>
    <style>
      .st0 {
        fill: #8c00ff;
      }

      .st1 {
        fill: #6200b3;
      }

      .st2 {
        fill: #230044;
      }
    </style>
  </defs>
  <rect class="st2" x="-1" y="-1" width="1026" height="1026"/>
  <g>
    <path class="st1" d="M690.5,589.6c-3.5,0-6.8-1.8-8.7-5-2.8-4.8-1.1-10.9,3.7-13.7l2.3-1.3-2.3-1.3c-4.8-2.8-6.4-8.9-3.7-13.7s8.9-6.4,13.7-3.7l17.3,10c3.1,1.8,5,5.1,5,8.7s-1.9,6.9-5,8.7l-17.3,10c-1.6.9-3.3,1.3-5,1.3Z"/>
    <path class="st1" d="M664.5,554.7c-1.7,0-3.4-.4-5-1.3l-34.6-20c-4.8-2.8-6.4-8.9-3.7-13.7,2.8-4.8,8.9-6.4,13.7-3.7l34.6,20c4.8,2.8,6.4,8.9,3.7,13.7-1.9,3.2-5.2,5-8.7,5ZM604,519.7c-1.7,0-3.4-.4-5-1.3l-34.6-20c-4.8-2.8-6.4-8.9-3.7-13.7,2.8-4.8,8.9-6.4,13.7-3.7l34.6,20c4.8,2.8,6.4,8.9,3.7,13.7-1.9,3.2-5.2,5-8.7,5ZM543.5,484.8c-1.7,0-3.4-.4-5-1.3l-34.6-20c-4.8-2.8-6.4-8.9-3.7-13.7,2.8-4.8,8.9-6.4,13.7-3.7l34.6,20c4.8,2.8,6.4,8.9,3.7,13.7-1.9,3.2-5.2,5-8.7,5ZM483,449.9c-1.7,0-3.4-.4-5-1.3l-34.6-20c-4.8-2.8-6.4-8.9-3.7-13.7s8.9-6.4,13.7-3.7l34.6,20c4.8,2.8,6.4,8.9,3.7,13.7-1.9,3.2-5.2,5-8.7,5ZM422.5,414.9c-1.7,0-3.4-.4-5-1.3l-34.6-20c-4.8-2.8-6.4-8.9-3.7-13.7,2.8-4.8,8.9-6.4,13.7-3.7l34.6,20c4.8,2.8,6.4,8.9,3.7,13.7-1.9,3.2-5.2,5-8.7,5Z"/>
    <path class="st1" d="M344.7,390c-5.5,0-10-4.5-10-10v-20c0-3.6,1.9-6.9,5-8.7,3.1-1.8,6.9-1.8,10,0l17.3,10c4.8,2.8,6.4,8.9,3.7,13.7-2.8,4.8-8.9,6.4-13.7,3.7l-2.3-1.3v2.7c0,5.5-4.5,10-10,10Z"/>
    <path class="st1" d="M344.7,739.3c-5.5,0-10-4.5-10-10v-39.9c0-5.5,4.5-10,10-10s10,4.5,10,10v39.9c0,5.5-4.5,10-10,10ZM344.7,669.5c-5.5,0-10-4.5-10-10v-39.9c0-5.5,4.5-10,10-10s10,4.5,10,10v39.9c0,5.5-4.5,10-10,10ZM344.7,599.6c-5.5,0-10-4.5-10-10v-39.9c0-5.5,4.5-10,10-10s10,4.5,10,10v39.9c0,5.5-4.5,10-10,10ZM344.7,529.7c-5.5,0-10-4.5-10-10v-39.9c0-5.5,4.5-10,10-10s10,4.5,10,10v39.9c0,5.5-4.5,10-10,10ZM344.7,459.8c-5.5,0-10-4.5-10-10v-39.9c0-5.5,4.5-10,10-10s10,4.5,10,10v39.9c0,5.5-4.5,10-10,10Z"/>
    <path class="st1" d="M344.7,789.3c-1.7,0-3.5-.4-5-1.3-3.1-1.8-5-5.1-5-8.7v-20c0-5.5,4.5-10,10-10s10,4.5,10,10v2.7l2.3-1.3c4.8-2.8,10.9-1.1,13.7,3.7,2.8,4.8,1.1,10.9-3.7,13.7l-17.3,10c-1.5.9-3.3,1.3-5,1.3Z"/>
    <path class="st1" d="M387.9,764.3c-3.5,0-6.8-1.8-8.7-5-2.8-4.8-1.1-10.9,3.7-13.7l34.6-20c4.8-2.8,10.9-1.1,13.7,3.7,2.8,4.8,1.1,10.9-3.7,13.7l-34.6,20c-1.6.9-3.3,1.3-5,1.3ZM448.5,729.4c-3.5,0-6.8-1.8-8.7-5-2.8-4.8-1.1-10.9,3.7-13.7l34.6-20c4.8-2.8,10.9-1.1,13.7,3.7,2.8,4.8,1.1,10.9-3.7,13.7l-34.6,20c-1.6.9-3.3,1.3-5,1.3ZM509,694.4c-3.5,0-6.8-1.8-8.7-5-2.8-4.8-1.1-10.9,3.7-13.7l34.6-20c4.8-2.8,10.9-1.1,13.7,3.7,2.8,4.8,1.1,10.9-3.7,13.7l-34.6,20c-1.6.9-3.3,1.3-5,1.3ZM569.5,659.5c-3.5,0-6.8-1.8-8.7-5-2.8-4.8-1.1-10.9,3.7-13.7l34.6-20c4.8-2.8,10.9-1.1,13.7,3.7,2.8,4.8,1.1,10.9-3.7,13.7l-34.6,20c-1.6.9-3.3,1.3-5,1.3ZM630,624.6c-3.5,0-6.8-1.8-8.7-5-2.8-4.8-1.1-10.9,3.7-13.7l34.6-20c4.8-2.8,10.9-1.1,13.7,3.7,2.8,4.8,1.1,10.9-3.7,13.7l-34.6,20c-1.6.9-3.3,1.3-5,1.3Z"/>
  </g>
  <path class="st0" d="M649.7,423.5l-323.9-187c-8.7-5-19.6,1.3-19.6,11.3v374.1c0,10.1,10.9,16.3,19.6,11.3l323.9-187c8.7-5,8.7-17.6,0-22.6Z"/>
  <path class="st1" d="M922,992.5H102c-40,0-72.5-32.5-72.5-72.5V104c0-40,32.5-72.5,72.5-72.5h820c40,0,72.5,32.5,72.5,72.5v816c0,40-32.5,72.5-72.5,72.5ZM102,46.5c-31.7,0-57.5,25.8-57.5,57.5v816c0,31.7,25.8,57.5,57.5,57.5h820c31.7,0,57.5-25.8,57.5-57.5V104c0-31.7-25.8-57.5-57.5-57.5H102Z"/>
</svg>