<?xml version="1.0" encoding="UTF-8"?>
<svg id="Layer_1" xmlns="http://www.w3.org/2000/svg" version="1.1" viewBox="0 0 2260 1020">
  <!-- Generator: Adobe Illustrator 29.5.1, SVG Export Plug-In . SVG Version: 2.1.0 Build 141)  -->
  <defs>
    <style>
      .st0 {
        fill: #8c00ff;
      }

      .st1 {
        fill: #6200b3;
      }

      .st2 {
        fill: #3d006f;
      }

      .st3 {
        fill: #230044;
      }

      .st4 {
        fill: #999;
      }
    </style>
  </defs>
  <rect class="st3" x="1596" y="512" width="350" height="340"/>
  <rect class="st1" x="1200.9" y="651.7" width="203.6" height="108.1" rx="12.3" ry="12.3"/>
  <rect class="st2" x="1171.7" y="578" width="203.6" height="108.1" rx="12.3" ry="12.3"/>
  <path class="st0" d="M1288.3,633.7l-28-16.2c-.6-.4-1.4,0-1.4.8v32.3c0,.7.8,1.2,1.4.8l28-16.2c.6-.4.6-1.3,0-1.6Z"/>
  <rect class="st2" x="1682.9" y="679.7" width="203.6" height="108.1" rx="12.3" ry="12.3"/>
  <rect class="st1" x="1654.5" y="600" width="203.6" height="108.1" rx="12.3" ry="12.3"/>
  <path class="st0" d="M1772.3,651.7l-28-16.2c-.6-.4-1.4,0-1.4.8v32.3c0,.7.8,1.2,1.4.8l28-16.2c.6-.4.6-1.3,0-1.6Z"/>
  <rect class="st3" x="1566" y="22" width="350" height="340"/>
  <rect class="st3" x="2350" y="-30" width="1026" height="1026"/>
  <g>
    <g>
      <path class="st1" d="M4136.5,569.6c-3.5,0-6.8-1.8-8.7-5-2.8-4.8-1.1-10.9,3.7-13.7l2.3-1.3-2.3-1.3c-4.8-2.8-6.4-8.9-3.7-13.7s8.9-6.4,13.7-3.7l17.3,10c3.1,1.8,5,5.1,5,8.7s-1.9,6.9-5,8.7l-17.3,10c-1.6.9-3.3,1.3-5,1.3Z"/>
      <path class="st1" d="M4110.5,534.7c-1.7,0-3.4-.4-5-1.3l-34.6-20c-4.8-2.8-6.4-8.9-3.7-13.7,2.8-4.8,8.9-6.4,13.7-3.7l34.6,20c4.8,2.8,6.4,8.9,3.7,13.7-1.9,3.2-5.2,5-8.7,5ZM4050,499.7c-1.7,0-3.4-.4-5-1.3l-34.6-20c-4.8-2.8-6.4-8.9-3.7-13.7,2.8-4.8,8.9-6.4,13.7-3.7l34.6,20c4.8,2.8,6.4,8.9,3.7,13.7-1.9,3.2-5.2,5-8.7,5ZM3989.5,464.8c-1.7,0-3.4-.4-5-1.3l-34.6-20c-4.8-2.8-6.4-8.9-3.7-13.7,2.8-4.8,8.9-6.4,13.7-3.7l34.6,20c4.8,2.8,6.4,8.9,3.7,13.7-1.9,3.2-5.2,5-8.7,5ZM3929,429.9c-1.7,0-3.4-.4-5-1.3l-34.6-20c-4.8-2.8-6.4-8.9-3.7-13.7s8.9-6.4,13.7-3.7l34.6,20c4.8,2.8,6.4,8.9,3.7,13.7-1.9,3.2-5.2,5-8.7,5ZM3868.5,394.9c-1.7,0-3.4-.4-5-1.3l-34.6-20c-4.8-2.8-6.4-8.9-3.7-13.7,2.8-4.8,8.9-6.4,13.7-3.7l34.6,20c4.8,2.8,6.4,8.9,3.7,13.7-1.9,3.2-5.2,5-8.7,5Z"/>
      <path class="st1" d="M3790.7,370c-5.5,0-10-4.5-10-10v-20c0-3.6,1.9-6.9,5-8.7,3.1-1.8,6.9-1.8,10,0l17.3,10c4.8,2.8,6.4,8.9,3.7,13.7-2.8,4.8-8.9,6.4-13.7,3.7l-2.3-1.3v2.7c0,5.5-4.5,10-10,10Z"/>
      <path class="st1" d="M3790.7,719.3c-5.5,0-10-4.5-10-10v-39.9c0-5.5,4.5-10,10-10s10,4.5,10,10v39.9c0,5.5-4.5,10-10,10ZM3790.7,649.5c-5.5,0-10-4.5-10-10v-39.9c0-5.5,4.5-10,10-10s10,4.5,10,10v39.9c0,5.5-4.5,10-10,10ZM3790.7,579.6c-5.5,0-10-4.5-10-10v-39.9c0-5.5,4.5-10,10-10s10,4.5,10,10v39.9c0,5.5-4.5,10-10,10ZM3790.7,509.7c-5.5,0-10-4.5-10-10v-39.9c0-5.5,4.5-10,10-10s10,4.5,10,10v39.9c0,5.5-4.5,10-10,10ZM3790.7,439.8c-5.5,0-10-4.5-10-10v-39.9c0-5.5,4.5-10,10-10s10,4.5,10,10v39.9c0,5.5-4.5,10-10,10Z"/>
      <path class="st1" d="M3790.7,769.3c-1.7,0-3.5-.4-5-1.3-3.1-1.8-5-5.1-5-8.7v-20c0-5.5,4.5-10,10-10s10,4.5,10,10v2.7l2.3-1.3c4.8-2.8,10.9-1.1,13.7,3.7,2.8,4.8,1.1,10.9-3.7,13.7l-17.3,10c-1.5.9-3.3,1.3-5,1.3Z"/>
      <path class="st1" d="M3833.9,744.3c-3.5,0-6.8-1.8-8.7-5-2.8-4.8-1.1-10.9,3.7-13.7l34.6-20c4.8-2.8,10.9-1.1,13.7,3.7,2.8,4.8,1.1,10.9-3.7,13.7l-34.6,20c-1.6.9-3.3,1.3-5,1.3ZM3894.5,709.4c-3.5,0-6.8-1.8-8.7-5-2.8-4.8-1.1-10.9,3.7-13.7l34.6-20c4.8-2.8,10.9-1.1,13.7,3.7,2.8,4.8,1.1,10.9-3.7,13.7l-34.6,20c-1.6.9-3.3,1.3-5,1.3ZM3955,674.4c-3.5,0-6.8-1.8-8.7-5-2.8-4.8-1.1-10.9,3.7-13.7l34.6-20c4.8-2.8,10.9-1.1,13.7,3.7,2.8,4.8,1.1,10.9-3.7,13.7l-34.6,20c-1.6.9-3.3,1.3-5,1.3ZM4015.5,639.5c-3.5,0-6.8-1.8-8.7-5-2.8-4.8-1.1-10.9,3.7-13.7l34.6-20c4.8-2.8,10.9-1.1,13.7,3.7,2.8,4.8,1.1,10.9-3.7,13.7l-34.6,20c-1.6.9-3.3,1.3-5,1.3ZM4076,604.6c-3.5,0-6.8-1.8-8.7-5-2.8-4.8-1.1-10.9,3.7-13.7l34.6-20c4.8-2.8,10.9-1.1,13.7,3.7,2.8,4.8,1.1,10.9-3.7,13.7l-34.6,20c-1.6.9-3.3,1.3-5,1.3Z"/>
    </g>
    <path class="st0" d="M4095.7,403.5l-323.9-187c-8.7-5-19.6,1.3-19.6,11.3v374.1c0,10.1,10.9,16.3,19.6,11.3l323.9-187c8.7-5,8.7-17.6,0-22.6Z"/>
  </g>
  <path class="st1" d="M4368,972.5h-820c-40,0-72.5-32.5-72.5-72.5V84c0-40,32.5-72.5,72.5-72.5h820c40,0,72.5,32.5,72.5,72.5v816c0,40-32.5,72.5-72.5,72.5ZM3548,26.5c-31.7,0-57.5,25.8-57.5,57.5v816c0,31.7,25.8,57.5,57.5,57.5h820c31.7,0,57.5-25.8,57.5-57.5V84c0-31.7-25.8-57.5-57.5-57.5h-820Z"/>
  <g>
    <path class="st1" d="M3041.5,560.6c-3.5,0-6.8-1.8-8.7-5-2.8-4.8-1.1-10.9,3.7-13.7l2.3-1.3-2.3-1.3c-4.8-2.8-6.4-8.9-3.7-13.7s8.9-6.4,13.7-3.7l17.3,10c3.1,1.8,5,5.1,5,8.7s-1.9,6.9-5,8.7l-17.3,10c-1.6.9-3.3,1.3-5,1.3Z"/>
    <path class="st1" d="M3015.5,525.7c-1.7,0-3.4-.4-5-1.3l-34.6-20c-4.8-2.8-6.4-8.9-3.7-13.7,2.8-4.8,8.9-6.4,13.7-3.7l34.6,20c4.8,2.8,6.4,8.9,3.7,13.7-1.9,3.2-5.2,5-8.7,5ZM2955,490.7c-1.7,0-3.4-.4-5-1.3l-34.6-20c-4.8-2.8-6.4-8.9-3.7-13.7,2.8-4.8,8.9-6.4,13.7-3.7l34.6,20c4.8,2.8,6.4,8.9,3.7,13.7-1.9,3.2-5.2,5-8.7,5ZM2894.5,455.8c-1.7,0-3.4-.4-5-1.3l-34.6-20c-4.8-2.8-6.4-8.9-3.7-13.7,2.8-4.8,8.9-6.4,13.7-3.7l34.6,20c4.8,2.8,6.4,8.9,3.7,13.7-1.9,3.2-5.2,5-8.7,5ZM2834,420.9c-1.7,0-3.4-.4-5-1.3l-34.6-20c-4.8-2.8-6.4-8.9-3.7-13.7s8.9-6.4,13.7-3.7l34.6,20c4.8,2.8,6.4,8.9,3.7,13.7-1.9,3.2-5.2,5-8.7,5ZM2773.5,385.9c-1.7,0-3.4-.4-5-1.3l-34.6-20c-4.8-2.8-6.4-8.9-3.7-13.7,2.8-4.8,8.9-6.4,13.7-3.7l34.6,20c4.8,2.8,6.4,8.9,3.7,13.7-1.9,3.2-5.2,5-8.7,5Z"/>
    <path class="st1" d="M2695.7,361c-5.5,0-10-4.5-10-10v-20c0-3.6,1.9-6.9,5-8.7,3.1-1.8,6.9-1.8,10,0l17.3,10c4.8,2.8,6.4,8.9,3.7,13.7-2.8,4.8-8.9,6.4-13.7,3.7l-2.3-1.3v2.7c0,5.5-4.5,10-10,10Z"/>
    <path class="st1" d="M2695.7,710.3c-5.5,0-10-4.5-10-10v-39.9c0-5.5,4.5-10,10-10s10,4.5,10,10v39.9c0,5.5-4.5,10-10,10ZM2695.7,640.5c-5.5,0-10-4.5-10-10v-39.9c0-5.5,4.5-10,10-10s10,4.5,10,10v39.9c0,5.5-4.5,10-10,10ZM2695.7,570.6c-5.5,0-10-4.5-10-10v-39.9c0-5.5,4.5-10,10-10s10,4.5,10,10v39.9c0,5.5-4.5,10-10,10ZM2695.7,500.7c-5.5,0-10-4.5-10-10v-39.9c0-5.5,4.5-10,10-10s10,4.5,10,10v39.9c0,5.5-4.5,10-10,10ZM2695.7,430.8c-5.5,0-10-4.5-10-10v-39.9c0-5.5,4.5-10,10-10s10,4.5,10,10v39.9c0,5.5-4.5,10-10,10Z"/>
    <path class="st1" d="M2695.7,760.3c-1.7,0-3.5-.4-5-1.3-3.1-1.8-5-5.1-5-8.7v-20c0-5.5,4.5-10,10-10s10,4.5,10,10v2.7l2.3-1.3c4.8-2.8,10.9-1.1,13.7,3.7,2.8,4.8,1.1,10.9-3.7,13.7l-17.3,10c-1.5.9-3.3,1.3-5,1.3Z"/>
    <path class="st1" d="M2738.9,735.3c-3.5,0-6.8-1.8-8.7-5-2.8-4.8-1.1-10.9,3.7-13.7l34.6-20c4.8-2.8,10.9-1.1,13.7,3.7,2.8,4.8,1.1,10.9-3.7,13.7l-34.6,20c-1.6.9-3.3,1.3-5,1.3ZM2799.5,700.4c-3.5,0-6.8-1.8-8.7-5-2.8-4.8-1.1-10.9,3.7-13.7l34.6-20c4.8-2.8,10.9-1.1,13.7,3.7,2.8,4.8,1.1,10.9-3.7,13.7l-34.6,20c-1.6.9-3.3,1.3-5,1.3ZM2860,665.4c-3.5,0-6.8-1.8-8.7-5-2.8-4.8-1.1-10.9,3.7-13.7l34.6-20c4.8-2.8,10.9-1.1,13.7,3.7,2.8,4.8,1.1,10.9-3.7,13.7l-34.6,20c-1.6.9-3.3,1.3-5,1.3ZM2920.5,630.5c-3.5,0-6.8-1.8-8.7-5-2.8-4.8-1.1-10.9,3.7-13.7l34.6-20c4.8-2.8,10.9-1.1,13.7,3.7,2.8,4.8,1.1,10.9-3.7,13.7l-34.6,20c-1.6.9-3.3,1.3-5,1.3ZM2981,595.6c-3.5,0-6.8-1.8-8.7-5-2.8-4.8-1.1-10.9,3.7-13.7l34.6-20c4.8-2.8,10.9-1.1,13.7,3.7,2.8,4.8,1.1,10.9-3.7,13.7l-34.6,20c-1.6.9-3.3,1.3-5,1.3Z"/>
  </g>
  <path class="st0" d="M3000.7,394.5l-323.9-187c-8.7-5-19.6,1.3-19.6,11.3v374.1c0,10.1,10.9,16.3,19.6,11.3l323.9-187c8.7-5,8.7-17.6,0-22.6Z"/>
  <path class="st1" d="M3273,963.5h-820c-40,0-72.5-32.5-72.5-72.5V75c0-40,32.5-72.5,72.5-72.5h820c40,0,72.5,32.5,72.5,72.5v816c0,40-32.5,72.5-72.5,72.5ZM2453,17.5c-31.7,0-57.5,25.8-57.5,57.5v816c0,31.7,25.8,57.5,57.5,57.5h820c31.7,0,57.5-25.8,57.5-57.5V75c0-31.7-25.8-57.5-57.5-57.5h-820Z"/>
  <g>
    <path class="st2" d="M1375.3,227.2c-1,0-2-.5-2.6-1.5-.8-1.4-.3-3.3,1.1-4.1l.7-.4-.7-.4c-1.4-.8-1.9-2.6-1.1-4.1.8-1.4,2.6-1.9,4.1-1.1l5.2,3c.9.5,1.5,1.5,1.5,2.6s-.6,2.1-1.5,2.6l-5.2,3c-.5.3-1,.4-1.5.4Z"/>
    <path class="st2" d="M1367.6,216.8c-.5,0-1-.1-1.5-.4l-10.3-6c-1.4-.8-1.9-2.6-1.1-4.1.8-1.4,2.6-1.9,4.1-1.1l10.3,6c1.4.8,1.9,2.6,1.1,4.1-.6,1-1.6,1.5-2.6,1.5ZM1349.5,206.3c-.5,0-1-.1-1.5-.4l-10.3-6c-1.4-.8-1.9-2.6-1.1-4.1.8-1.4,2.6-1.9,4.1-1.1l10.3,6c1.4.8,1.9,2.6,1.1,4.1-.6,1-1.6,1.5-2.6,1.5ZM1331.5,195.9c-.5,0-1-.1-1.5-.4l-10.3-6c-1.4-.8-1.9-2.6-1.1-4.1.8-1.4,2.6-1.9,4.1-1.1l10.3,6c1.4.8,1.9,2.6,1.1,4.1-.6,1-1.6,1.5-2.6,1.5ZM1313.4,185.5c-.5,0-1-.1-1.5-.4l-10.3-6c-1.4-.8-1.9-2.6-1.1-4.1.8-1.4,2.6-1.9,4.1-1.1l10.3,6c1.4.8,1.9,2.6,1.1,4.1-.6,1-1.6,1.5-2.6,1.5ZM1295.4,175.1c-.5,0-1-.1-1.5-.4l-10.3-6c-1.4-.8-1.9-2.6-1.1-4.1.8-1.4,2.6-1.9,4.1-1.1l10.3,6c1.4.8,1.9,2.6,1.1,4.1-.6,1-1.6,1.5-2.6,1.5Z"/>
    <path class="st2" d="M1272.2,167.6c-1.6,0-3-1.3-3-3v-6c0-1.1.6-2.1,1.5-2.6.9-.5,2.1-.5,3,0l5.2,3c1.4.8,1.9,2.6,1.1,4.1-.8,1.4-2.6,1.9-4.1,1.1l-.7-.4v.8c0,1.6-1.3,3-3,3Z"/>
    <path class="st2" d="M1272.2,271.8c-1.6,0-3-1.3-3-3v-11.9c0-1.6,1.3-3,3-3s3,1.3,3,3v11.9c0,1.6-1.3,3-3,3ZM1272.2,251c-1.6,0-3-1.3-3-3v-11.9c0-1.6,1.3-3,3-3s3,1.3,3,3v11.9c0,1.6-1.3,3-3,3ZM1272.2,230.2c-1.6,0-3-1.3-3-3v-11.9c0-1.6,1.3-3,3-3s3,1.3,3,3v11.9c0,1.6-1.3,3-3,3ZM1272.2,209.3c-1.6,0-3-1.3-3-3v-11.9c0-1.6,1.3-3,3-3s3,1.3,3,3v11.9c0,1.6-1.3,3-3,3ZM1272.2,188.5c-1.6,0-3-1.3-3-3v-11.9c0-1.6,1.3-3,3-3s3,1.3,3,3v11.9c0,1.6-1.3,3-3,3Z"/>
    <path class="st2" d="M1272.2,286.7c-.5,0-1-.1-1.5-.4-.9-.5-1.5-1.5-1.5-2.6v-6c0-1.6,1.3-3,3-3s3,1.3,3,3v.8l.7-.4c1.4-.8,3.3-.3,4.1,1.1.8,1.4.3,3.3-1.1,4.1l-5.2,3c-.5.3-1,.4-1.5.4Z"/>
    <path class="st2" d="M1285.1,279.3c-1,0-2-.5-2.6-1.5-.8-1.4-.3-3.3,1.1-4.1l10.3-6c1.4-.8,3.3-.3,4.1,1.1s.3,3.3-1.1,4.1l-10.3,6c-.5.3-1,.4-1.5.4ZM1303.1,268.9c-1,0-2-.5-2.6-1.5-.8-1.4-.3-3.3,1.1-4.1l10.3-6c1.4-.8,3.3-.3,4.1,1.1.8,1.4.3,3.3-1.1,4.1l-10.3,6c-.5.3-1,.4-1.5.4ZM1321.2,258.4c-1,0-2-.5-2.6-1.5-.8-1.4-.3-3.3,1.1-4.1l10.3-6c1.4-.8,3.3-.3,4.1,1.1.8,1.4.3,3.3-1.1,4.1l-10.3,6c-.5.3-1,.4-1.5.4ZM1339.2,248c-1,0-2-.5-2.6-1.5-.8-1.4-.3-3.3,1.1-4.1l10.3-6c1.4-.8,3.3-.3,4.1,1.1.8,1.4.3,3.3-1.1,4.1l-10.3,6c-.5.3-1,.4-1.5.4ZM1357.3,237.6c-1,0-2-.5-2.6-1.5-.8-1.4-.3-3.3,1.1-4.1l10.3-6c1.4-.8,3.3-.3,4.1,1.1.8,1.4.3,3.3-1.1,4.1l-10.3,6c-.5.3-1,.4-1.5.4Z"/>
  </g>
  <path class="st0" d="M1371.2,161.1l-96.6-55.8c-2.6-1.5-5.8.4-5.8,3.4v111.6c0,3,3.2,4.9,5.8,3.4l96.6-55.8c2.6-1.5,2.6-5.2,0-6.7Z"/>
  <path class="st2" d="M1434.5,340.5h-244.6c-11.9,0-21.6-9.7-21.6-21.6V75.5c0-11.9,9.7-21.6,21.6-21.6h244.6c11.9,0,21.6,9.7,21.6,21.6v243.4c0,11.9-9.7,21.6-21.6,21.6ZM1189.9,58.3c-9.5,0-17.1,7.7-17.1,17.1v243.4c0,9.5,7.7,17.1,17.1,17.1h244.6c9.5,0,17.1-7.7,17.1-17.1V75.5c0-9.5-7.7-17.1-17.1-17.1h-244.6Z"/>
  <path class="st2" d="M1410.5,810.5h-244.6c-11.9,0-21.6-9.7-21.6-21.6v-243.4c0-11.9,9.7-21.6,21.6-21.6h244.6c11.9,0,21.6,9.7,21.6,21.6v243.4c0,11.9-9.7,21.6-21.6,21.6ZM1165.9,528.3c-9.5,0-17.1,7.7-17.1,17.1v243.4c0,9.5,7.7,17.1,17.1,17.1h244.6c9.5,0,17.1-7.7,17.1-17.1v-243.4c0-9.5-7.7-17.1-17.1-17.1h-244.6Z"/>
  <g>
    <path class="st1" d="M1801.3,221.6c-1,0-2-.5-2.6-1.5-.8-1.4-.3-3.3,1.1-4.1l.7-.4-.7-.4c-1.4-.8-1.9-2.6-1.1-4.1.8-1.4,2.6-1.9,4.1-1.1l5.2,3c.9.5,1.5,1.5,1.5,2.6s-.6,2.1-1.5,2.6l-5.2,3c-.5.3-1,.4-1.5.4Z"/>
    <path class="st1" d="M1793.6,211.2c-.5,0-1-.1-1.5-.4l-10.3-6c-1.4-.8-1.9-2.6-1.1-4.1.8-1.4,2.6-1.9,4.1-1.1l10.3,6c1.4.8,1.9,2.6,1.1,4.1-.6,1-1.6,1.5-2.6,1.5ZM1775.6,200.8c-.5,0-1-.1-1.5-.4l-10.3-6c-1.4-.8-1.9-2.6-1.1-4.1.8-1.4,2.6-1.9,4.1-1.1l10.3,6c1.4.8,1.9,2.6,1.1,4.1-.6,1-1.6,1.5-2.6,1.5ZM1757.5,190.3c-.5,0-1-.1-1.5-.4l-10.3-6c-1.4-.8-1.9-2.6-1.1-4.1.8-1.4,2.6-1.9,4.1-1.1l10.3,6c1.4.8,1.9,2.6,1.1,4.1-.6,1-1.6,1.5-2.6,1.5ZM1739.5,179.9c-.5,0-1-.1-1.5-.4l-10.3-6c-1.4-.8-1.9-2.6-1.1-4.1.8-1.4,2.6-1.9,4.1-1.1l10.3,6c1.4.8,1.9,2.6,1.1,4.1-.6,1-1.6,1.5-2.6,1.5ZM1721.4,169.5c-.5,0-1-.1-1.5-.4l-10.3-6c-1.4-.8-1.9-2.6-1.1-4.1.8-1.4,2.6-1.9,4.1-1.1l10.3,6c1.4.8,1.9,2.6,1.1,4.1-.6,1-1.6,1.5-2.6,1.5Z"/>
    <path class="st1" d="M1698.2,162.1c-1.6,0-3-1.3-3-3v-6c0-1.1.6-2.1,1.5-2.6.9-.5,2.1-.5,3,0l5.2,3c1.4.8,1.9,2.6,1.1,4.1-.8,1.4-2.6,1.9-4.1,1.1l-.7-.4v.8c0,1.6-1.3,3-3,3Z"/>
    <path class="st1" d="M1698.2,266.3c-1.6,0-3-1.3-3-3v-11.9c0-1.6,1.3-3,3-3s3,1.3,3,3v11.9c0,1.6-1.3,3-3,3ZM1698.2,245.4c-1.6,0-3-1.3-3-3v-11.9c0-1.6,1.3-3,3-3s3,1.3,3,3v11.9c0,1.6-1.3,3-3,3ZM1698.2,224.6c-1.6,0-3-1.3-3-3v-11.9c0-1.6,1.3-3,3-3s3,1.3,3,3v11.9c0,1.6-1.3,3-3,3ZM1698.2,203.7c-1.6,0-3-1.3-3-3v-11.9c0-1.6,1.3-3,3-3s3,1.3,3,3v11.9c0,1.6-1.3,3-3,3ZM1698.2,182.9c-1.6,0-3-1.3-3-3v-11.9c0-1.6,1.3-3,3-3s3,1.3,3,3v11.9c0,1.6-1.3,3-3,3Z"/>
    <path class="st1" d="M1698.2,281.1c-.5,0-1-.1-1.5-.4-.9-.5-1.5-1.5-1.5-2.6v-6c0-1.6,1.3-3,3-3s3,1.3,3,3v.8l.7-.4c1.4-.8,3.3-.3,4.1,1.1.8,1.4.3,3.3-1.1,4.1l-5.2,3c-.5.3-1,.4-1.5.4Z"/>
    <path class="st1" d="M1711.1,273.7c-1,0-2-.5-2.6-1.5-.8-1.4-.3-3.3,1.1-4.1l10.3-6c1.4-.8,3.3-.3,4.1,1.1s.3,3.3-1.1,4.1l-10.3,6c-.5.3-1,.4-1.5.4ZM1729.2,263.3c-1,0-2-.5-2.6-1.5-.8-1.4-.3-3.3,1.1-4.1l10.3-6c1.4-.8,3.3-.3,4.1,1.1.8,1.4.3,3.3-1.1,4.1l-10.3,6c-.5.3-1,.4-1.5.4ZM1747.2,252.9c-1,0-2-.5-2.6-1.5-.8-1.4-.3-3.3,1.1-4.1l10.3-6c1.4-.8,3.3-.3,4.1,1.1.8,1.4.3,3.3-1.1,4.1l-10.3,6c-.5.3-1,.4-1.5.4ZM1765.2,242.4c-1,0-2-.5-2.6-1.5-.8-1.4-.3-3.3,1.1-4.1l10.3-6c1.4-.8,3.3-.3,4.1,1.1.8,1.4.3,3.3-1.1,4.1l-10.3,6c-.5.3-1,.4-1.5.4ZM1783.3,232c-1,0-2-.5-2.6-1.5-.8-1.4-.3-3.3,1.1-4.1l10.3-6c1.4-.8,3.3-.3,4.1,1.1.8,1.4.3,3.3-1.1,4.1l-10.3,6c-.5.3-1,.4-1.5.4Z"/>
  </g>
  <path class="st0" d="M1797.2,155.5l-96.6-55.8c-2.6-1.5-5.8.4-5.8,3.4v111.6c0,3,3.2,4.9,5.8,3.4l96.6-55.8c2.6-1.5,2.6-5.2,0-6.7Z"/>
  <path class="st1" d="M1860.5,334.9h-244.6c-11.9,0-21.6-9.7-21.6-21.6V69.9c0-11.9,9.7-21.6,21.6-21.6h244.6c11.9,0,21.6,9.7,21.6,21.6v243.4c0,11.9-9.7,21.6-21.6,21.6ZM1616,52.7c-9.5,0-17.1,7.7-17.1,17.1v243.4c0,9.5,7.7,17.1,17.1,17.1h244.6c9.5,0,17.1-7.7,17.1-17.1V69.9c0-9.5-7.7-17.1-17.1-17.1h-244.6Z"/>
  <rect class="st0" x="112" y="116" width="212" height="232"/>
  <rect class="st1" x="336" y="118" width="212" height="232"/>
  <rect class="st2" x="556" y="122" width="212" height="232"/>
  <rect class="st4" x="100" y="488" width="212" height="232"/>
  <rect class="st4" x="368" y="496" width="212" height="232"/>
</svg>