<?xml version="1.0" encoding="UTF-8" standalone="no"?>
<!DOCTYPE svg PUBLIC "-//W3C//DTD SVG 1.1//EN" "http://www.w3.org/Graphics/SVG/1.1/DTD/svg11.dtd">
<svg width="100%" height="100%" viewBox="0 0 2000 2000" version="1.1" xmlns="http://www.w3.org/2000/svg" xmlns:xlink="http://www.w3.org/1999/xlink" xml:space="preserve" xmlns:serif="http://www.serif.com/" style="fill-rule:evenodd;clip-rule:evenodd;stroke-linejoin:round;stroke-miterlimit:2;">
    <path d="M921,147.424C909.341,148.96 897.671,148.861 886,150.167C848.92,154.315 811.233,160.421 775,169.923C642.033,204.792 516.443,268.516 414,361.17C306.799,458.127 224.17,583.704 178.748,721C159.896,777.986 146.875,838.291 141.17,898C138.507,925.865 139,953.99 139,982C139,1010.68 138.454,1039.47 141.17,1068C149.559,1156.15 172.766,1243.77 208.173,1325C246.739,1413.48 303.334,1494.55 370.039,1564C440.406,1637.26 525.435,1699.48 618,1741.66C686.125,1772.69 757.493,1794.45 831,1807.46C839.684,1809 848.29,1811.43 857,1812.7C869.329,1814.5 881.652,1814.94 894,1816.17C909.295,1817.7 924.621,1820.29 940,1820.96C969.613,1822.26 999.541,1821.11 1029,1819.09C1054.42,1817.35 1079.75,1816.31 1105,1812.7C1140.91,1807.57 1177.09,1798.97 1212,1788.96C1280.94,1769.2 1347.46,1739.5 1409,1702.8C1428.5,1691.17 1447.3,1678.52 1466,1665.66C1470.73,1662.41 1475.37,1659.02 1480,1655.63C1482.26,1653.97 1485,1651.47 1488,1651.6C1490.73,1651.71 1493.02,1653.96 1495,1655.59C1500.35,1660.01 1505.1,1665.1 1510,1670C1528,1688 1546.13,1705.88 1564.13,1723.87C1604.31,1764.04 1643.57,1805.35 1684.83,1844.42C1703.27,1861.88 1721.62,1882.1 1744,1894.65C1768.92,1908.63 1800.02,1911.66 1828,1906.58C1868.86,1899.14 1900.9,1864.3 1911.24,1825C1914.19,1813.8 1914,1802.47 1914,1791C1914,1776.88 1912.89,1763.4 1908.06,1750C1895.23,1714.44 1867.06,1689.06 1841,1663L1734,1556C1714.83,1536.83 1695.17,1518.15 1676,1499C1670.97,1493.97 1657.49,1484.18 1658.77,1476C1659.62,1470.58 1664.51,1465.39 1667.5,1461C1674.27,1451.03 1680.98,1441.02 1687.67,1431C1706.9,1402.14 1723.73,1371.26 1738.68,1340C1768.56,1277.51 1788.27,1210.7 1801.81,1143C1807.02,1116.96 1810.36,1091.31 1813.17,1065C1813.78,1059.3 1815.52,1053.76 1815.91,1048C1816.48,1039.7 1815.68,1031.31 1816.04,1023C1816.72,1007.46 1818.37,991.558 1817.99,976C1817.8,968.326 1816.38,960.667 1816.04,953C1815.66,944.353 1816.5,935.636 1815.91,927C1815.49,920.909 1813.82,915.03 1813.17,909C1812.68,904.354 1813.27,899.651 1812.83,895C1811.37,879.728 1809.12,864.1 1806.68,849C1794.21,772.024 1770.46,696.924 1738.1,626C1712.39,569.652 1678.46,516.58 1640.21,468C1515.33,309.384 1335.09,196.431 1136,160.536C1111.75,156.162 1087.62,151.514 1063,149.17C1035.13,146.515 1007.03,147 979,147C960.058,147 939.778,144.952 921,147.424Z" style="fill:rgb(32,58,84);fill-rule:nonzero;"/>
    <path d="M926,330.424C916.009,331.752 905.94,331.991 896,333.184C892.253,333.634 888.735,335.156 885,335.7C858.765,339.522 832.753,344.056 807,350.514C736.623,368.163 668.999,398.998 609,439.745C535.771,489.477 469.535,553.758 422.576,629C403.888,658.944 386.054,688.777 371.478,721C351.139,765.961 335.833,815.5 327.674,864C324.938,880.266 320.934,896.553 319.174,913C313.562,965.416 314.18,1019.95 321.7,1072C325.524,1098.47 329.373,1125.22 336.782,1151C355.729,1216.94 382.869,1280.14 420.09,1338C489.382,1445.71 590.82,1533.32 708,1585.04C729.874,1594.69 752.074,1604.4 775,1611.38C813.881,1623.22 853.785,1632.49 894,1637.71C910.219,1639.82 926.687,1639.97 943,1641.09C956.783,1642.03 971.199,1643.26 985,1642.98C992.002,1642.85 999.016,1641.57 1006,1641.09C1013.98,1640.54 1022.02,1641.46 1030,1640.91C1046.94,1639.75 1064.13,1636.94 1081,1634.82C1094.75,1633.08 1108.41,1629.03 1122,1626.31C1194.28,1611.87 1264.58,1582.29 1327,1543.16C1506.42,1430.69 1623.45,1234.88 1637.91,1024C1638.79,1011.12 1638,997.915 1638,985C1638,970.101 1638.93,954.863 1637.91,940C1637.47,933.612 1635.79,927.362 1635.17,921C1632.16,889.944 1627.53,859.463 1620.32,829C1600.3,744.4 1560.82,666.491 1510.42,596C1470.09,539.59 1418.14,489.896 1361,450.659C1298.11,407.474 1231.71,373.369 1158,353.079C1100.17,337.16 1040.98,330 981,330C963.038,330 943.805,328.058 926,330.424Z" style="fill:white;fill-rule:nonzero;"/>
    <path d="M756,557.439C711.401,564.39 671.292,596.204 659.759,641C655.832,656.254 656,672.374 656,688C656,697.608 655.433,707.414 656.089,717C657.591,738.919 657,761 657,783L657,884C657,980.663 657.465,1077.34 656.999,1174C656.781,1219.18 653.924,1264.84 657.089,1310C658.205,1325.91 660.602,1343.6 667.981,1358C687.336,1395.76 732.868,1424.45 776,1419.83C803.656,1416.86 826.672,1401.43 850,1387.6C880.998,1369.22 912.096,1350.98 943,1332.45C1058.14,1263.4 1174.88,1197.08 1290,1128C1305.29,1118.83 1320.52,1109.53 1336,1100.7C1372.66,1079.78 1415.22,1059.92 1426.33,1015C1427.25,1011.31 1428.63,1007.83 1428.91,1004C1430.43,983.432 1428.09,960.361 1418.1,942C1403.79,915.696 1376.35,900.618 1351,886.694C1337.12,879.071 1323.58,870.833 1310,862.692C1181.73,785.77 1053.27,709.161 925,632.2C901.016,617.81 876.842,603.694 853,589.089C823.97,571.305 791.666,551.88 756,557.439Z" style="fill:#0bf569;fill-rule:nonzero;"/>
</svg>
