<?xml version="1.0" encoding="UTF-8" standalone="no"?><!DOCTYPE svg PUBLIC "-//W3C//DTD SVG 1.1//EN" "http://www.w3.org/Graphics/SVG/1.1/DTD/svg11.dtd"><svg width="100%" height="100%" viewBox="0 0 4267 4267" version="1.1" xmlns="http://www.w3.org/2000/svg" xmlns:xlink="http://www.w3.org/1999/xlink" xml:space="preserve" xmlns:serif="http://www.serif.com/" style="fill-rule:evenodd;clip-rule:evenodd;stroke-linejoin:round;stroke-miterlimit:2;"><rect x="-4.167" y="-4.167" width="4275" height="4275" style="fill:#f0e6e0;"/><g><path d="M3202.909,2435.046c-16.641,0 -32.331,-8.558 -41.364,-23.773c-13.313,-22.822 -5.23,-51.824 17.592,-65.137l10.935,-6.181l-10.935,-6.181c-22.822,-13.313 -30.429,-42.315 -17.592,-65.137c12.837,-22.822 42.315,-30.429 65.137,-17.592l82.253,47.545c14.739,8.558 23.773,24.248 23.773,41.364c0,17.116 -9.034,32.806 -23.773,41.364l-82.253,47.545c-7.607,4.279 -15.69,6.181 -23.773,6.181Z" style="fill:#2f478b;fill-rule:nonzero;"/><path d="M3079.292,2269.114c-8.083,0 -16.165,-1.902 -23.773,-6.181l-164.506,-95.09c-22.822,-13.313 -30.429,-42.315 -17.592,-65.137c13.313,-22.822 42.315,-30.429 65.137,-17.592l164.506,95.09c22.822,13.313 30.429,42.315 17.592,65.137c-9.034,15.214 -24.724,23.773 -41.364,23.773Zm-287.649,-166.408c-8.083,0 -16.165,-1.902 -23.773,-6.181l-164.506,-95.09c-22.822,-13.313 -30.429,-42.315 -17.592,-65.137c13.313,-22.822 42.315,-30.429 65.137,-17.592l164.506,95.09c22.822,13.313 30.429,42.315 17.592,65.137c-9.034,15.214 -24.724,23.773 -41.364,23.773Zm-287.649,-165.933c-8.083,0 -16.165,-1.902 -23.773,-6.181l-164.506,-95.09c-22.822,-13.313 -30.429,-42.315 -17.592,-65.137c13.313,-22.822 42.315,-30.429 65.137,-17.592l164.506,95.09c22.822,13.313 30.429,42.315 17.592,65.137c-9.034,15.214 -24.724,23.773 -41.364,23.773Zm-287.649,-165.933c-8.083,0 -16.165,-1.902 -23.773,-6.181l-164.506,-95.09c-22.822,-13.313 -30.429,-42.315 -17.592,-65.137c12.837,-22.822 42.315,-30.429 65.137,-17.592l164.506,95.09c22.822,13.313 30.429,42.315 17.592,65.137c-9.034,15.214 -24.724,23.773 -41.364,23.773Zm-287.649,-166.408c-8.083,0 -16.165,-1.902 -23.773,-6.181l-164.506,-95.09c-22.822,-13.313 -30.429,-42.315 -17.592,-65.137c13.313,-22.822 42.315,-30.429 65.137,-17.592l164.506,95.09c22.822,13.313 30.429,42.315 17.592,65.137c-9.034,15.214 -24.724,23.773 -41.364,23.773Z" style="fill:#2f478b;fill-rule:nonzero;"/><path d="M1558.795,1486.044c-26.15,0 -47.545,-21.395 -47.545,-47.545l0,-95.09c0,-17.116 9.034,-32.806 23.773,-41.364c14.739,-8.558 32.806,-8.558 47.545,0l82.253,47.545c22.822,13.313 30.429,42.315 17.592,65.137c-13.313,22.822 -42.315,30.429 -65.137,17.592l-10.935,-6.181l0,12.837c0,26.15 -21.395,47.545 -47.545,47.545l0,-0.475Z" style="fill:#2f478b;fill-rule:nonzero;"/><path d="M1558.795,3146.798c-26.15,0 -47.545,-21.395 -47.545,-47.545l0,-189.705c0,-26.15 21.395,-47.545 47.545,-47.545c26.15,0 47.545,21.395 47.545,47.545l0,189.705c0,26.15 -21.395,47.545 -47.545,47.545Zm0,-331.866c-26.15,0 -47.545,-21.395 -47.545,-47.545l0,-189.705c0,-26.15 21.395,-47.545 47.545,-47.545c26.15,0 47.545,21.395 47.545,47.545l0,189.705c0,26.15 -21.395,47.545 -47.545,47.545Zm0,-332.341c-26.15,0 -47.545,-21.395 -47.545,-47.545l0,-189.705c0,-26.15 21.395,-47.545 47.545,-47.545c26.15,0 47.545,21.395 47.545,47.545l0,189.705c0,26.15 -21.395,47.545 -47.545,47.545Zm0,-332.341c-26.15,0 -47.545,-21.395 -47.545,-47.545l0,-189.705c0,-26.15 21.395,-47.545 47.545,-47.545c26.15,0 47.545,21.395 47.545,47.545l0,189.705c0,26.15 -21.395,47.545 -47.545,47.545Zm0,-332.341c-26.15,0 -47.545,-21.395 -47.545,-47.545l0,-189.705c0,-26.15 21.395,-47.545 47.545,-47.545c26.15,0 47.545,21.395 47.545,47.545l0,189.705c0,26.15 -21.395,47.545 -47.545,47.545Z" style="fill:#2f478b;fill-rule:nonzero;"/><path d="M1558.795,3384.525c-8.083,0 -16.641,-1.902 -23.773,-6.181c-14.739,-8.558 -23.773,-24.248 -23.773,-41.364l0,-95.09c0,-26.15 21.395,-47.545 47.545,-47.545c26.15,0 47.545,21.395 47.545,47.545l0,12.837l10.935,-6.181c22.822,-13.313 51.824,-5.23 65.137,17.592c13.313,22.822 5.23,51.824 -17.592,65.137l-82.253,47.545c-7.132,4.279 -15.69,6.181 -23.773,6.181l0,-0.475Z" style="fill:#2f478b;fill-rule:nonzero;"/><path d="M1764.191,3265.661c-16.641,0 -32.331,-8.558 -41.364,-23.773c-13.313,-22.822 -5.23,-51.824 17.592,-65.137l164.506,-95.09c22.822,-13.313 51.824,-5.23 65.137,17.592c13.313,22.822 5.23,51.824 -17.592,65.137l-164.506,95.09c-7.607,4.279 -15.69,6.181 -23.773,6.181Zm288.124,-165.933c-16.641,0 -32.331,-8.558 -41.364,-23.773c-13.313,-22.822 -5.23,-51.824 17.592,-65.137l164.506,-95.09c22.822,-13.313 51.824,-5.23 65.137,17.592c13.313,22.822 5.23,51.824 -17.592,65.137l-164.506,95.09c-7.607,4.279 -15.69,6.181 -23.773,6.181Zm287.649,-166.408c-16.641,0 -32.331,-8.558 -41.364,-23.773c-13.313,-22.822 -5.23,-51.824 17.592,-65.137l164.506,-95.09c22.822,-13.313 51.824,-5.23 65.137,17.592c13.313,22.822 5.23,51.824 -17.592,65.137l-164.506,95.09c-7.607,4.279 -15.69,6.181 -23.773,6.181Zm287.649,-165.933c-16.641,0 -32.331,-8.558 -41.364,-23.773c-13.313,-22.822 -5.23,-51.824 17.592,-65.137l164.506,-95.09c22.822,-13.313 51.824,-5.23 65.137,17.592c13.313,22.822 5.23,51.824 -17.592,65.137l-164.506,95.09c-7.607,4.279 -15.69,6.181 -23.773,6.181Zm287.649,-165.933c-16.641,0 -32.331,-8.558 -41.364,-23.773c-13.313,-22.822 -5.23,-51.824 17.592,-65.137l164.506,-95.09c22.822,-13.313 51.824,-5.23 65.137,17.592c13.313,22.822 5.23,51.824 -17.592,65.137l-164.506,95.09c-7.607,4.279 -15.69,6.181 -23.773,6.181Z" style="fill:#2f478b;fill-rule:nonzero;"/></g><path d="M2923.722,1866.932l-1557.79,-843.413c-41.842,-22.551 -94.266,5.863 -94.266,50.966l0,1687.277c0,45.553 52.423,73.517 94.266,50.966l1557.79,-843.413c41.842,-22.551 41.842,-79.38 0,-101.931l0,-0.451Z" style="fill:#4570ff;fill-rule:nonzero;stroke:#000;stroke-width:4.17px;"/><path d="M3841.667,4135.417l-3416.667,0c-166.667,0 -302.083,-135.417 -302.083,-302.083l-0,-3400c0,-166.667 135.417,-302.083 302.083,-302.083l3416.667,0c166.667,0 302.083,135.417 302.083,302.083l0,3400c0,166.667 -135.417,302.083 -302.083,302.083Zm-3416.667,-3941.667c-132.083,0 -239.583,107.5 -239.583,239.583l0,3400c0,132.083 107.5,239.583 239.583,239.583l3416.667,0c132.083,0 239.583,-107.5 239.583,-239.583l0,-3400c0,-132.083 -107.5,-239.583 -239.583,-239.583l-3416.667,0Z" style="fill:#2f478b;fill-rule:nonzero;stroke:#2f478b;stroke-width:4.17px;"/></svg>